<?xml version='1.0' encoding='utf-8'?>
<mlt LC_NUMERIC="C" producer="main_bin" version="7.16.0" root="/home/landon/Documents/newrepos/addition-bad-apple">
 <profile frame_rate_num="30" sample_aspect_num="1" display_aspect_den="9" colorspace="709" progressive="1" description="HD 1080p 30 fps" display_aspect_num="16" frame_rate_den="1" width="1920" height="1080" sample_aspect_den="1"/>
 <chain id="chain5" out="00:03:39.000">
  <property name="length">6571</property>
  <property name="eof">pause</property>
  <property name="resource">/home/own/Documents/newrepos/addition-bad-apple/output.mp4</property>
  <property name="mlt_service">avformat-novalidate</property>
  <property name="meta.media.nb_streams">2</property>
  <property name="meta.media.0.stream.type">video</property>
  <property name="meta.media.0.stream.frame_rate">30</property>
  <property name="meta.media.0.stream.sample_aspect_ratio">1</property>
  <property name="meta.media.0.codec.width">960</property>
  <property name="meta.media.0.codec.height">720</property>
  <property name="meta.media.0.codec.rotate">0</property>
  <property name="meta.media.0.codec.pix_fmt">yuvj420p</property>
  <property name="meta.media.0.codec.sample_aspect_ratio">1</property>
  <property name="meta.media.0.codec.colorspace">601</property>
  <property name="meta.media.0.codec.name">h264</property>
  <property name="meta.media.0.codec.long_name">H.264 / AVC / MPEG-4 AVC / MPEG-4 part 10</property>
  <property name="meta.media.0.codec.bit_rate">41778159</property>
  <property name="meta.attr.0.stream.handler_name.markup">VideoHandler</property>
  <property name="meta.attr.0.stream.vendor_id.markup">[0][0][0][0]</property>
  <property name="meta.attr.0.stream.encoder.markup">Lavc60.3.100 libx264</property>
  <property name="meta.media.1.stream.type">audio</property>
  <property name="meta.media.1.codec.sample_fmt">fltp</property>
  <property name="meta.media.1.codec.sample_rate">44100</property>
  <property name="meta.media.1.codec.channels">2</property>
  <property name="meta.media.1.codec.name">aac</property>
  <property name="meta.media.1.codec.long_name">AAC (Advanced Audio Coding)</property>
  <property name="meta.media.1.codec.bit_rate">127831</property>
  <property name="meta.attr.1.stream.handler_name.markup">ISO Media file produced by Google Inc. Created on: 11/30/2019.</property>
  <property name="meta.attr.1.stream.vendor_id.markup">[0][0][0][0]</property>
  <property name="meta.attr.major_brand.markup">isom</property>
  <property name="meta.attr.minor_version.markup">512</property>
  <property name="meta.attr.compatible_brands.markup">isomiso2avc1mp41</property>
  <property name="meta.attr.encoder.markup">Lavf60.3.100</property>
  <property name="seekable">1</property>
  <property name="meta.media.sample_aspect_num">1</property>
  <property name="meta.media.sample_aspect_den">1</property>
  <property name="format">3</property>
  <property name="audio_index">1</property>
  <property name="video_index">0</property>
  <property name="meta.media.frame_rate_num">30</property>
  <property name="meta.media.frame_rate_den">1</property>
  <property name="meta.media.colorspace">601</property>
  <property name="meta.media.color_trc">2</property>
  <property name="meta.media.has_b_frames">2</property>
  <property name="meta.media.width">960</property>
  <property name="meta.media.height">720</property>
  <property name="meta.media.color_range">full</property>
  <property name="kdenlive:clipname"/>
  <property name="kdenlive:clip_type">0</property>
  <property name="kdenlive:folderid">-1</property>
  <property name="kdenlive:id">4</property>
  <property name="mute_on_pause">0</property>
  <property name="kdenlive:file_size">1147541157</property>
  <property name="kdenlive:audio_max1">250</property>
  <property name="meta.media.top_field_first">0</property>
  <property name="meta.media.progressive">1</property>
  <property name="kdenlive:file_hash">f1620adcabcea7694dc73ce70e2b06cf</property>
 </chain>
 <chain id="chain4" out="00:03:39.100">
  <property name="length">6574</property>
  <property name="eof">pause</property>
  <property name="resource">/home/own/Documents/newrepos/addition-bad-apple/positioner/BadApple.mp4</property>
  <property name="mlt_service">avformat-novalidate</property>
  <property name="meta.media.nb_streams">2</property>
  <property name="meta.media.0.stream.type">video</property>
  <property name="meta.media.0.stream.frame_rate">30</property>
  <property name="meta.media.0.stream.sample_aspect_ratio">0</property>
  <property name="meta.media.0.codec.width">480</property>
  <property name="meta.media.0.codec.height">360</property>
  <property name="meta.media.0.codec.rotate">0</property>
  <property name="meta.media.0.codec.pix_fmt">yuv420p</property>
  <property name="meta.media.0.codec.sample_aspect_ratio">1</property>
  <property name="meta.media.0.codec.colorspace">601</property>
  <property name="meta.media.0.codec.name">h264</property>
  <property name="meta.media.0.codec.long_name">H.264 / AVC / MPEG-4 AVC / MPEG-4 part 10</property>
  <property name="meta.media.0.codec.bit_rate">260175</property>
  <property name="meta.attr.0.stream.creation_time.markup">2019-12-01T04:55:19.000000Z</property>
  <property name="meta.attr.0.stream.handler_name.markup">ISO Media file produced by Google Inc. Created on: 11/30/2019.</property>
  <property name="meta.attr.0.stream.vendor_id.markup">[0][0][0][0]</property>
  <property name="meta.media.1.stream.type">audio</property>
  <property name="meta.media.1.codec.sample_fmt">fltp</property>
  <property name="meta.media.1.codec.sample_rate">44100</property>
  <property name="meta.media.1.codec.channels">2</property>
  <property name="meta.media.1.codec.name">aac</property>
  <property name="meta.media.1.codec.long_name">AAC (Advanced Audio Coding)</property>
  <property name="meta.media.1.codec.bit_rate">95999</property>
  <property name="meta.attr.1.stream.creation_time.markup">2019-12-01T04:55:19.000000Z</property>
  <property name="meta.attr.1.stream.handler_name.markup">ISO Media file produced by Google Inc. Created on: 11/30/2019.</property>
  <property name="meta.attr.1.stream.vendor_id.markup">[0][0][0][0]</property>
  <property name="meta.attr.major_brand.markup">mp42</property>
  <property name="meta.attr.minor_version.markup">0</property>
  <property name="meta.attr.compatible_brands.markup">isommp42</property>
  <property name="meta.attr.creation_time.markup">2019-12-01T04:55:19.000000Z</property>
  <property name="seekable">1</property>
  <property name="meta.media.sample_aspect_num">1</property>
  <property name="meta.media.sample_aspect_den">1</property>
  <property name="format">3</property>
  <property name="audio_index">1</property>
  <property name="video_index">0</property>
  <property name="meta.media.frame_rate_num">30</property>
  <property name="meta.media.frame_rate_den">1</property>
  <property name="meta.media.colorspace">601</property>
  <property name="meta.media.color_trc">2</property>
  <property name="meta.media.has_b_frames">0</property>
  <property name="meta.media.width">480</property>
  <property name="meta.media.height">360</property>
  <property name="meta.media.color_range">mpeg</property>
  <property name="kdenlive:clipname"/>
  <property name="kdenlive:clip_type">0</property>
  <property name="kdenlive:folderid">-1</property>
  <property name="kdenlive:id">5</property>
  <property name="mute_on_pause">0</property>
  <property name="kdenlive:file_size">9824048</property>
  <property name="kdenlive:file_hash">af7695a66d20e4af4aa318801bdaae02</property>
  <property name="kdenlive:audio_max1">253</property>
  <property name="meta.media.top_field_first">0</property>
  <property name="meta.media.progressive">1</property>
 </chain>
 <producer id="producer0" in="00:00:00.000" out="00:28:03.700">
  <property name="length">2147483647</property>
  <property name="eof">continue</property>
  <property name="resource">black</property>
  <property name="aspect_ratio">1</property>
  <property name="mlt_service">color</property>
  <property name="kdenlive:playlistid">black_track</property>
  <property name="mlt_image_format">rgba</property>
  <property name="set.test_audio">0</property>
 </producer>
 <chain id="chain0" out="00:03:39.100">
  <property name="length">6574</property>
  <property name="eof">pause</property>
  <property name="resource">/home/own/Documents/newrepos/addition-bad-apple/positioner/BadApple.mp4</property>
  <property name="mlt_service">avformat-novalidate</property>
  <property name="seekable">1</property>
  <property name="format">3</property>
  <property name="audio_index">1</property>
  <property name="video_index">0</property>
  <property name="kdenlive:clipname"/>
  <property name="kdenlive:clip_type">0</property>
  <property name="kdenlive:folderid">-1</property>
  <property name="kdenlive:id">5</property>
  <property name="mute_on_pause">0</property>
  <property name="kdenlive:file_size">9824048</property>
  <property name="kdenlive:file_hash">af7695a66d20e4af4aa318801bdaae02</property>
  <property name="kdenlive:audio_max1">253</property>
  <property name="meta.media.nb_streams">2</property>
  <property name="meta.media.0.stream.type">video</property>
  <property name="meta.media.0.stream.frame_rate">30</property>
  <property name="meta.media.0.stream.sample_aspect_ratio">0</property>
  <property name="meta.media.0.codec.width">480</property>
  <property name="meta.media.0.codec.height">360</property>
  <property name="meta.media.0.codec.rotate">0</property>
  <property name="meta.media.0.codec.pix_fmt">yuv420p</property>
  <property name="meta.media.0.codec.sample_aspect_ratio">1</property>
  <property name="meta.media.0.codec.colorspace">601</property>
  <property name="meta.media.0.codec.name">h264</property>
  <property name="meta.media.0.codec.long_name">H.264 / AVC / MPEG-4 AVC / MPEG-4 part 10</property>
  <property name="meta.media.0.codec.bit_rate">260175</property>
  <property name="meta.attr.0.stream.creation_time.markup">2019-12-01T04:55:19.000000Z</property>
  <property name="meta.attr.0.stream.handler_name.markup">ISO Media file produced by Google Inc. Created on: 11/30/2019.</property>
  <property name="meta.attr.0.stream.vendor_id.markup">[0][0][0][0]</property>
  <property name="meta.media.1.stream.type">audio</property>
  <property name="meta.media.1.codec.sample_fmt">fltp</property>
  <property name="meta.media.1.codec.sample_rate">44100</property>
  <property name="meta.media.1.codec.channels">2</property>
  <property name="meta.media.1.codec.name">aac</property>
  <property name="meta.media.1.codec.long_name">AAC (Advanced Audio Coding)</property>
  <property name="meta.media.1.codec.bit_rate">95999</property>
  <property name="meta.attr.1.stream.creation_time.markup">2019-12-01T04:55:19.000000Z</property>
  <property name="meta.attr.1.stream.handler_name.markup">ISO Media file produced by Google Inc. Created on: 11/30/2019.</property>
  <property name="meta.attr.1.stream.vendor_id.markup">[0][0][0][0]</property>
  <property name="meta.attr.major_brand.markup">mp42</property>
  <property name="meta.attr.minor_version.markup">0</property>
  <property name="meta.attr.compatible_brands.markup">isommp42</property>
  <property name="meta.attr.creation_time.markup">2019-12-01T04:55:19.000000Z</property>
  <property name="meta.media.sample_aspect_num">1</property>
  <property name="meta.media.sample_aspect_den">1</property>
  <property name="meta.media.frame_rate_num">30</property>
  <property name="meta.media.frame_rate_den">1</property>
  <property name="meta.media.colorspace">601</property>
  <property name="meta.media.color_trc">2</property>
  <property name="meta.media.has_b_frames">0</property>
  <property name="meta.media.width">480</property>
  <property name="meta.media.height">360</property>
  <property name="meta.media.color_range">mpeg</property>
  <property name="xml">was here</property>
  <property name="meta.media.top_field_first">0</property>
  <property name="meta.media.progressive">1</property>
  <property name="set.test_audio">0</property>
  <property name="set.test_image">1</property>
 </chain>
 <playlist id="playlist0">
  <property name="kdenlive:audio_track">1</property>
  <blank length="00:07:47.067"/>
  <entry producer="chain0" in="00:00:02.500" out="00:03:39.100">
   <property name="kdenlive:id">5</property>
  </entry>
 </playlist>
 <playlist id="playlist1">
  <property name="kdenlive:audio_track">1</property>
 </playlist>
 <tractor id="tractor0" in="00:00:00.000" out="00:11:23.667">
  <property name="kdenlive:audio_track">1</property>
  <property name="kdenlive:trackheight">69</property>
  <property name="kdenlive:timeline_active">1</property>
  <property name="kdenlive:collapsed">0</property>
  <property name="kdenlive:thumbs_format"/>
  <property name="kdenlive:audio_rec"/>
  <track hide="video" producer="playlist0"/>
  <track hide="video" producer="playlist1"/>
  <filter id="filter0">
   <property name="window">75</property>
   <property name="max_gain">20dB</property>
   <property name="level">-24.2265</property>
   <property name="mlt_service">volume</property>
   <property name="internal_added">237</property>
   <property name="disable">0</property>
  </filter>
  <filter id="filter1">
   <property name="channel">-1</property>
   <property name="mlt_service">panner</property>
   <property name="internal_added">237</property>
   <property name="start">0.5</property>
   <property name="disable">1</property>
  </filter>
  <filter id="filter2">
   <property name="iec_scale">0</property>
   <property name="mlt_service">audiolevel</property>
   <property name="dbpeak">1</property>
   <property name="disable">1</property>
  </filter>
 </tractor>
 <chain id="chain1" out="00:07:23.433">
  <property name="length">13304</property>
  <property name="eof">pause</property>
  <property name="resource">/home/own/Videos/addappleslides_1_ssr-2023-06-02_12.37.26.mkv</property>
  <property name="mlt_service">avformat-novalidate</property>
  <property name="seekable">1</property>
  <property name="format">3</property>
  <property name="audio_index">1</property>
  <property name="video_index">0</property>
  <property name="kdenlive:clipname"/>
  <property name="kdenlive:clip_type">0</property>
  <property name="kdenlive:folderid">-1</property>
  <property name="kdenlive:id">6</property>
  <property name="mute_on_pause">0</property>
  <property name="kdenlive:file_size">10312798</property>
  <property name="kdenlive:file_hash">cc725651ab56819bb7ca45fb0dad178d</property>
  <property name="kdenlive:audio_max1">205</property>
  <property name="meta.media.nb_streams">2</property>
  <property name="meta.media.0.stream.type">video</property>
  <property name="meta.media.0.stream.frame_rate">30.303</property>
  <property name="meta.media.0.stream.sample_aspect_ratio">1</property>
  <property name="meta.media.0.codec.width">1920</property>
  <property name="meta.media.0.codec.height">1080</property>
  <property name="meta.media.0.codec.rotate">0</property>
  <property name="meta.media.0.codec.pix_fmt">yuv420p</property>
  <property name="meta.media.0.codec.sample_aspect_ratio">1</property>
  <property name="meta.media.0.codec.colorspace">709</property>
  <property name="meta.media.0.codec.color_trc">1</property>
  <property name="meta.media.0.codec.name">h264</property>
  <property name="meta.media.0.codec.long_name">H.264 / AVC / MPEG-4 AVC / MPEG-4 part 10</property>
  <property name="meta.media.0.codec.bit_rate">0</property>
  <property name="meta.attr.0.stream.DURATION.markup">00:07:23.401000000</property>
  <property name="meta.media.1.stream.type">audio</property>
  <property name="meta.media.1.codec.sample_fmt">fltp</property>
  <property name="meta.media.1.codec.sample_rate">48000</property>
  <property name="meta.media.1.codec.channels">2</property>
  <property name="meta.media.1.codec.name">vorbis</property>
  <property name="meta.media.1.codec.long_name">Vorbis</property>
  <property name="meta.media.1.codec.bit_rate">0</property>
  <property name="meta.attr.1.stream.DURATION.markup">00:07:23.468000000</property>
  <property name="meta.attr.ENCODER.markup">Lavf60.3.100</property>
  <property name="meta.media.sample_aspect_num">1</property>
  <property name="meta.media.sample_aspect_den">1</property>
  <property name="meta.media.frame_rate_num">1000</property>
  <property name="meta.media.frame_rate_den">33</property>
  <property name="meta.media.colorspace">709</property>
  <property name="meta.media.color_trc">1</property>
  <property name="meta.media.has_b_frames">2</property>
  <property name="meta.media.width">1920</property>
  <property name="meta.media.height">1080</property>
  <property name="meta.media.color_range">mpeg</property>
  <property name="xml">was here</property>
  <property name="meta.media.top_field_first">0</property>
  <property name="meta.media.progressive">1</property>
  <property name="set.test_audio">0</property>
  <property name="set.test_image">1</property>
 </chain>
 <chain id="chain2" out="00:00:47.000">
  <property name="length">1411</property>
  <property name="eof">pause</property>
  <property name="resource">/home/own/Videos/addappleslides_2_ssr-2023-06-02_12.45.58.mkv</property>
  <property name="mlt_service">avformat-novalidate</property>
  <property name="seekable">1</property>
  <property name="format">3</property>
  <property name="audio_index">1</property>
  <property name="video_index">0</property>
  <property name="kdenlive:clipname"/>
  <property name="kdenlive:clip_type">0</property>
  <property name="kdenlive:folderid">-1</property>
  <property name="kdenlive:id">7</property>
  <property name="mute_on_pause">0</property>
  <property name="kdenlive:file_size">4645249</property>
  <property name="kdenlive:file_hash">1c6f11cb4d3d13141a8e9e2d2c9f64f5</property>
  <property name="kdenlive:audio_max1">201</property>
  <property name="meta.media.nb_streams">2</property>
  <property name="meta.media.0.stream.type">video</property>
  <property name="meta.media.0.stream.frame_rate">30.303</property>
  <property name="meta.media.0.stream.sample_aspect_ratio">1</property>
  <property name="meta.media.0.codec.width">1920</property>
  <property name="meta.media.0.codec.height">1080</property>
  <property name="meta.media.0.codec.rotate">0</property>
  <property name="meta.media.0.codec.pix_fmt">yuv420p</property>
  <property name="meta.media.0.codec.sample_aspect_ratio">1</property>
  <property name="meta.media.0.codec.colorspace">709</property>
  <property name="meta.media.0.codec.color_trc">1</property>
  <property name="meta.media.0.codec.name">h264</property>
  <property name="meta.media.0.codec.long_name">H.264 / AVC / MPEG-4 AVC / MPEG-4 part 10</property>
  <property name="meta.media.0.codec.bit_rate">0</property>
  <property name="meta.attr.0.stream.DURATION.markup">00:00:46.968000000</property>
  <property name="meta.media.1.stream.type">audio</property>
  <property name="meta.media.1.codec.sample_fmt">fltp</property>
  <property name="meta.media.1.codec.sample_rate">48000</property>
  <property name="meta.media.1.codec.channels">2</property>
  <property name="meta.media.1.codec.name">vorbis</property>
  <property name="meta.media.1.codec.long_name">Vorbis</property>
  <property name="meta.media.1.codec.bit_rate">0</property>
  <property name="meta.attr.1.stream.DURATION.markup">00:00:47.034000000</property>
  <property name="meta.attr.ENCODER.markup">Lavf60.3.100</property>
  <property name="meta.media.sample_aspect_num">1</property>
  <property name="meta.media.sample_aspect_den">1</property>
  <property name="meta.media.frame_rate_num">1000</property>
  <property name="meta.media.frame_rate_den">33</property>
  <property name="meta.media.colorspace">709</property>
  <property name="meta.media.color_trc">1</property>
  <property name="meta.media.has_b_frames">2</property>
  <property name="meta.media.width">1920</property>
  <property name="meta.media.height">1080</property>
  <property name="meta.media.color_range">mpeg</property>
  <property name="xml">was here</property>
  <property name="meta.media.top_field_first">0</property>
  <property name="meta.media.progressive">1</property>
  <property name="set.test_audio">0</property>
  <property name="set.test_image">1</property>
 </chain>
 <chain id="chain3" out="00:03:39.000">
  <property name="length">6571</property>
  <property name="eof">pause</property>
  <property name="resource">/home/own/Documents/newrepos/addition-bad-apple/output.mp4</property>
  <property name="mlt_service">avformat-novalidate</property>
  <property name="seekable">1</property>
  <property name="format">3</property>
  <property name="audio_index">1</property>
  <property name="video_index">0</property>
  <property name="kdenlive:clipname"/>
  <property name="kdenlive:clip_type">0</property>
  <property name="kdenlive:folderid">-1</property>
  <property name="kdenlive:id">4</property>
  <property name="mute_on_pause">0</property>
  <property name="kdenlive:file_size">1133048354</property>
  <property name="kdenlive:file_hash">e92a463f784a14a4564fa7b4c25a4687</property>
  <property name="kdenlive:audio_max1">250</property>
  <property name="meta.media.nb_streams">2</property>
  <property name="meta.media.0.stream.type">video</property>
  <property name="meta.media.0.stream.frame_rate">30</property>
  <property name="meta.media.0.stream.sample_aspect_ratio">1</property>
  <property name="meta.media.0.codec.width">960</property>
  <property name="meta.media.0.codec.height">720</property>
  <property name="meta.media.0.codec.rotate">0</property>
  <property name="meta.media.0.codec.pix_fmt">yuvj420p</property>
  <property name="meta.media.0.codec.sample_aspect_ratio">1</property>
  <property name="meta.media.0.codec.colorspace">601</property>
  <property name="meta.media.0.codec.name">h264</property>
  <property name="meta.media.0.codec.long_name">H.264 / AVC / MPEG-4 AVC / MPEG-4 part 10</property>
  <property name="meta.media.0.codec.bit_rate">41778159</property>
  <property name="meta.attr.0.stream.handler_name.markup">VideoHandler</property>
  <property name="meta.attr.0.stream.vendor_id.markup">[0][0][0][0]</property>
  <property name="meta.attr.0.stream.encoder.markup">Lavc60.3.100 libx264</property>
  <property name="meta.media.1.stream.type">audio</property>
  <property name="meta.media.1.codec.sample_fmt">fltp</property>
  <property name="meta.media.1.codec.sample_rate">44100</property>
  <property name="meta.media.1.codec.channels">2</property>
  <property name="meta.media.1.codec.name">aac</property>
  <property name="meta.media.1.codec.long_name">AAC (Advanced Audio Coding)</property>
  <property name="meta.media.1.codec.bit_rate">127831</property>
  <property name="meta.attr.1.stream.handler_name.markup">ISO Media file produced by Google Inc. Created on: 11/30/2019.</property>
  <property name="meta.attr.1.stream.vendor_id.markup">[0][0][0][0]</property>
  <property name="meta.attr.major_brand.markup">isom</property>
  <property name="meta.attr.minor_version.markup">512</property>
  <property name="meta.attr.compatible_brands.markup">isomiso2avc1mp41</property>
  <property name="meta.attr.encoder.markup">Lavf60.3.100</property>
  <property name="meta.media.sample_aspect_num">1</property>
  <property name="meta.media.sample_aspect_den">1</property>
  <property name="meta.media.frame_rate_num">30</property>
  <property name="meta.media.frame_rate_den">1</property>
  <property name="meta.media.colorspace">601</property>
  <property name="meta.media.color_trc">2</property>
  <property name="meta.media.has_b_frames">2</property>
  <property name="meta.media.width">960</property>
  <property name="meta.media.height">720</property>
  <property name="meta.media.color_range">full</property>
  <property name="xml">was here</property>
  <property name="meta.media.top_field_first">0</property>
  <property name="meta.media.progressive">1</property>
  <property name="set.test_audio">0</property>
  <property name="set.test_image">1</property>
 </chain>
 <playlist id="playlist2">
  <property name="kdenlive:audio_track">1</property>
  <entry producer="chain1" in="00:00:08.600" out="00:07:12.333">
   <property name="kdenlive:id">6</property>
   <property name="kdenlive:activeeffect">0</property>
   <filter id="filter3">
    <property name="target_loudness">-23</property>
    <property name="window">3</property>
    <property name="max_gain">5</property>
    <property name="min_gain">-15</property>
    <property name="max_rate">3</property>
    <property name="discontinuity_reset">1</property>
    <property name="in_loudness">-nan</property>
    <property name="out_gain">-nan</property>
    <property name="reset_count">15</property>
    <property name="mlt_service">dynamic_loudness</property>
    <property name="kdenlive_id">dynamic_loudness</property>
    <property name="kdenlive:collapsed">0</property>
   </filter>
  </entry>
  <entry producer="chain2" in="00:00:05.833" out="00:00:39.767">
   <property name="kdenlive:id">7</property>
   <property name="kdenlive:activeeffect">0</property>
   <filter id="filter4">
    <property name="target_loudness">-23</property>
    <property name="window">3</property>
    <property name="max_gain">5</property>
    <property name="min_gain">-15</property>
    <property name="max_rate">3</property>
    <property name="discontinuity_reset">1</property>
    <property name="in_loudness">-34.5881</property>
    <property name="out_gain">5</property>
    <property name="reset_count">5</property>
    <property name="mlt_service">dynamic_loudness</property>
    <property name="kdenlive_id">dynamic_loudness</property>
    <property name="kdenlive:collapsed">0</property>
   </filter>
  </entry>
  <entry producer="chain1" in="00:07:12.367" out="00:07:19.167">
   <property name="kdenlive:id">6</property>
   <property name="kdenlive:activeeffect">0</property>
   <filter id="filter5">
    <property name="target_loudness">-23</property>
    <property name="window">3</property>
    <property name="max_gain">5</property>
    <property name="min_gain">-15</property>
    <property name="max_rate">3</property>
    <property name="discontinuity_reset">1</property>
    <property name="in_loudness">-36.926</property>
    <property name="out_gain">5</property>
    <property name="reset_count">1</property>
    <property name="mlt_service">dynamic_loudness</property>
    <property name="kdenlive_id">dynamic_loudness</property>
    <property name="kdenlive:collapsed">0</property>
   </filter>
  </entry>
  <entry producer="chain3" in="00:00:00.000" out="00:03:39.000">
   <property name="kdenlive:id">4</property>
  </entry>
 </playlist>
 <playlist id="playlist3">
  <property name="kdenlive:audio_track">1</property>
 </playlist>
 <tractor id="tractor1" in="00:00:00.000" out="00:11:23.567">
  <property name="kdenlive:audio_track">1</property>
  <property name="kdenlive:trackheight">69</property>
  <property name="kdenlive:timeline_active">1</property>
  <property name="kdenlive:collapsed">0</property>
  <property name="kdenlive:thumbs_format"/>
  <property name="kdenlive:audio_rec"/>
  <track hide="video" producer="playlist2"/>
  <track hide="video" producer="playlist3"/>
  <filter id="filter6">
   <property name="window">75</property>
   <property name="max_gain">20dB</property>
   <property name="level">-0</property>
   <property name="mlt_service">volume</property>
   <property name="internal_added">237</property>
   <property name="disable">0</property>
  </filter>
  <filter id="filter7">
   <property name="channel">-1</property>
   <property name="mlt_service">panner</property>
   <property name="internal_added">237</property>
   <property name="start">0.5</property>
   <property name="disable">1</property>
  </filter>
  <filter id="filter8">
   <property name="iec_scale">0</property>
   <property name="mlt_service">audiolevel</property>
   <property name="dbpeak">1</property>
   <property name="disable">1</property>
  </filter>
 </tractor>
 <chain id="chain6" out="00:07:23.433">
  <property name="length">13304</property>
  <property name="eof">pause</property>
  <property name="resource">/home/own/Videos/addappleslides_1_ssr-2023-06-02_12.37.26.mkv</property>
  <property name="mlt_service">avformat-novalidate</property>
  <property name="seekable">1</property>
  <property name="format">3</property>
  <property name="audio_index">1</property>
  <property name="video_index">0</property>
  <property name="kdenlive:clipname"/>
  <property name="kdenlive:clip_type">0</property>
  <property name="kdenlive:folderid">-1</property>
  <property name="kdenlive:id">6</property>
  <property name="mute_on_pause">0</property>
  <property name="kdenlive:file_size">10312798</property>
  <property name="kdenlive:file_hash">cc725651ab56819bb7ca45fb0dad178d</property>
  <property name="kdenlive:audio_max1">205</property>
  <property name="meta.media.nb_streams">2</property>
  <property name="meta.media.0.stream.type">video</property>
  <property name="meta.media.0.stream.frame_rate">30.303</property>
  <property name="meta.media.0.stream.sample_aspect_ratio">1</property>
  <property name="meta.media.0.codec.width">1920</property>
  <property name="meta.media.0.codec.height">1080</property>
  <property name="meta.media.0.codec.rotate">0</property>
  <property name="meta.media.0.codec.pix_fmt">yuv420p</property>
  <property name="meta.media.0.codec.sample_aspect_ratio">1</property>
  <property name="meta.media.0.codec.colorspace">709</property>
  <property name="meta.media.0.codec.color_trc">1</property>
  <property name="meta.media.0.codec.name">h264</property>
  <property name="meta.media.0.codec.long_name">H.264 / AVC / MPEG-4 AVC / MPEG-4 part 10</property>
  <property name="meta.media.0.codec.bit_rate">0</property>
  <property name="meta.attr.0.stream.DURATION.markup">00:07:23.401000000</property>
  <property name="meta.media.1.stream.type">audio</property>
  <property name="meta.media.1.codec.sample_fmt">fltp</property>
  <property name="meta.media.1.codec.sample_rate">48000</property>
  <property name="meta.media.1.codec.channels">2</property>
  <property name="meta.media.1.codec.name">vorbis</property>
  <property name="meta.media.1.codec.long_name">Vorbis</property>
  <property name="meta.media.1.codec.bit_rate">0</property>
  <property name="meta.attr.1.stream.DURATION.markup">00:07:23.468000000</property>
  <property name="meta.attr.ENCODER.markup">Lavf60.3.100</property>
  <property name="meta.media.sample_aspect_num">1</property>
  <property name="meta.media.sample_aspect_den">1</property>
  <property name="meta.media.frame_rate_num">1000</property>
  <property name="meta.media.frame_rate_den">33</property>
  <property name="meta.media.colorspace">709</property>
  <property name="meta.media.color_trc">1</property>
  <property name="meta.media.has_b_frames">2</property>
  <property name="meta.media.width">1920</property>
  <property name="meta.media.height">1080</property>
  <property name="meta.media.color_range">mpeg</property>
  <property name="xml">was here</property>
  <property name="meta.media.top_field_first">0</property>
  <property name="meta.media.progressive">1</property>
  <property name="set.test_audio">1</property>
  <property name="set.test_image">0</property>
 </chain>
 <chain id="chain7" out="00:00:47.000">
  <property name="length">1411</property>
  <property name="eof">pause</property>
  <property name="resource">/home/own/Videos/addappleslides_2_ssr-2023-06-02_12.45.58.mkv</property>
  <property name="mlt_service">avformat-novalidate</property>
  <property name="seekable">1</property>
  <property name="format">3</property>
  <property name="audio_index">1</property>
  <property name="video_index">0</property>
  <property name="kdenlive:clipname"/>
  <property name="kdenlive:clip_type">0</property>
  <property name="kdenlive:folderid">-1</property>
  <property name="kdenlive:id">7</property>
  <property name="mute_on_pause">0</property>
  <property name="kdenlive:file_size">4645249</property>
  <property name="kdenlive:file_hash">1c6f11cb4d3d13141a8e9e2d2c9f64f5</property>
  <property name="kdenlive:audio_max1">201</property>
  <property name="meta.media.nb_streams">2</property>
  <property name="meta.media.0.stream.type">video</property>
  <property name="meta.media.0.stream.frame_rate">30.303</property>
  <property name="meta.media.0.stream.sample_aspect_ratio">1</property>
  <property name="meta.media.0.codec.width">1920</property>
  <property name="meta.media.0.codec.height">1080</property>
  <property name="meta.media.0.codec.rotate">0</property>
  <property name="meta.media.0.codec.pix_fmt">yuv420p</property>
  <property name="meta.media.0.codec.sample_aspect_ratio">1</property>
  <property name="meta.media.0.codec.colorspace">709</property>
  <property name="meta.media.0.codec.color_trc">1</property>
  <property name="meta.media.0.codec.name">h264</property>
  <property name="meta.media.0.codec.long_name">H.264 / AVC / MPEG-4 AVC / MPEG-4 part 10</property>
  <property name="meta.media.0.codec.bit_rate">0</property>
  <property name="meta.attr.0.stream.DURATION.markup">00:00:46.968000000</property>
  <property name="meta.media.1.stream.type">audio</property>
  <property name="meta.media.1.codec.sample_fmt">fltp</property>
  <property name="meta.media.1.codec.sample_rate">48000</property>
  <property name="meta.media.1.codec.channels">2</property>
  <property name="meta.media.1.codec.name">vorbis</property>
  <property name="meta.media.1.codec.long_name">Vorbis</property>
  <property name="meta.media.1.codec.bit_rate">0</property>
  <property name="meta.attr.1.stream.DURATION.markup">00:00:47.034000000</property>
  <property name="meta.attr.ENCODER.markup">Lavf60.3.100</property>
  <property name="meta.media.sample_aspect_num">1</property>
  <property name="meta.media.sample_aspect_den">1</property>
  <property name="meta.media.frame_rate_num">1000</property>
  <property name="meta.media.frame_rate_den">33</property>
  <property name="meta.media.colorspace">709</property>
  <property name="meta.media.color_trc">1</property>
  <property name="meta.media.has_b_frames">2</property>
  <property name="meta.media.width">1920</property>
  <property name="meta.media.height">1080</property>
  <property name="meta.media.color_range">mpeg</property>
  <property name="xml">was here</property>
  <property name="meta.media.top_field_first">0</property>
  <property name="meta.media.progressive">1</property>
  <property name="set.test_audio">1</property>
  <property name="set.test_image">0</property>
 </chain>
 <chain id="chain8" out="00:03:39.000">
  <property name="length">6571</property>
  <property name="eof">pause</property>
  <property name="resource">/home/own/Documents/newrepos/addition-bad-apple/output.mp4</property>
  <property name="mlt_service">avformat-novalidate</property>
  <property name="seekable">1</property>
  <property name="format">3</property>
  <property name="audio_index">1</property>
  <property name="video_index">0</property>
  <property name="kdenlive:clipname"/>
  <property name="kdenlive:clip_type">0</property>
  <property name="kdenlive:folderid">-1</property>
  <property name="kdenlive:id">4</property>
  <property name="mute_on_pause">0</property>
  <property name="kdenlive:file_size">1133048354</property>
  <property name="kdenlive:file_hash">e92a463f784a14a4564fa7b4c25a4687</property>
  <property name="kdenlive:audio_max1">250</property>
  <property name="meta.media.nb_streams">2</property>
  <property name="meta.media.0.stream.type">video</property>
  <property name="meta.media.0.stream.frame_rate">30</property>
  <property name="meta.media.0.stream.sample_aspect_ratio">1</property>
  <property name="meta.media.0.codec.width">960</property>
  <property name="meta.media.0.codec.height">720</property>
  <property name="meta.media.0.codec.rotate">0</property>
  <property name="meta.media.0.codec.pix_fmt">yuvj420p</property>
  <property name="meta.media.0.codec.sample_aspect_ratio">1</property>
  <property name="meta.media.0.codec.colorspace">601</property>
  <property name="meta.media.0.codec.name">h264</property>
  <property name="meta.media.0.codec.long_name">H.264 / AVC / MPEG-4 AVC / MPEG-4 part 10</property>
  <property name="meta.media.0.codec.bit_rate">41778159</property>
  <property name="meta.attr.0.stream.handler_name.markup">VideoHandler</property>
  <property name="meta.attr.0.stream.vendor_id.markup">[0][0][0][0]</property>
  <property name="meta.attr.0.stream.encoder.markup">Lavc60.3.100 libx264</property>
  <property name="meta.media.1.stream.type">audio</property>
  <property name="meta.media.1.codec.sample_fmt">fltp</property>
  <property name="meta.media.1.codec.sample_rate">44100</property>
  <property name="meta.media.1.codec.channels">2</property>
  <property name="meta.media.1.codec.name">aac</property>
  <property name="meta.media.1.codec.long_name">AAC (Advanced Audio Coding)</property>
  <property name="meta.media.1.codec.bit_rate">127831</property>
  <property name="meta.attr.1.stream.handler_name.markup">ISO Media file produced by Google Inc. Created on: 11/30/2019.</property>
  <property name="meta.attr.1.stream.vendor_id.markup">[0][0][0][0]</property>
  <property name="meta.attr.major_brand.markup">isom</property>
  <property name="meta.attr.minor_version.markup">512</property>
  <property name="meta.attr.compatible_brands.markup">isomiso2avc1mp41</property>
  <property name="meta.attr.encoder.markup">Lavf60.3.100</property>
  <property name="meta.media.sample_aspect_num">1</property>
  <property name="meta.media.sample_aspect_den">1</property>
  <property name="meta.media.frame_rate_num">30</property>
  <property name="meta.media.frame_rate_den">1</property>
  <property name="meta.media.colorspace">601</property>
  <property name="meta.media.color_trc">2</property>
  <property name="meta.media.has_b_frames">2</property>
  <property name="meta.media.width">960</property>
  <property name="meta.media.height">720</property>
  <property name="meta.media.color_range">full</property>
  <property name="xml">was here</property>
  <property name="meta.media.top_field_first">0</property>
  <property name="meta.media.progressive">1</property>
  <property name="set.test_audio">1</property>
  <property name="set.test_image">0</property>
 </chain>
 <playlist id="playlist4">
  <entry producer="chain6" in="00:00:08.600" out="00:07:12.333">
   <property name="kdenlive:id">6</property>
  </entry>
  <entry producer="chain7" in="00:00:05.833" out="00:00:39.767">
   <property name="kdenlive:id">7</property>
  </entry>
  <entry producer="chain6" in="00:07:12.367" out="00:07:19.167">
   <property name="kdenlive:id">6</property>
  </entry>
  <entry producer="chain8" in="00:00:00.000" out="00:03:39.000">
   <property name="kdenlive:id">4</property>
  </entry>
 </playlist>
 <playlist id="playlist5"/>
 <tractor id="tractor2" in="00:00:00.000" out="00:11:23.567">
  <property name="kdenlive:trackheight">69</property>
  <property name="kdenlive:timeline_active">1</property>
  <property name="kdenlive:collapsed">0</property>
  <property name="kdenlive:thumbs_format"/>
  <property name="kdenlive:audio_rec"/>
  <track hide="audio" producer="playlist4"/>
  <track hide="audio" producer="playlist5"/>
 </tractor>
 <chain id="chain9" out="00:03:39.100">
  <property name="length">6574</property>
  <property name="eof">pause</property>
  <property name="resource">/home/own/Documents/newrepos/addition-bad-apple/positioner/BadApple.mp4</property>
  <property name="mlt_service">avformat-novalidate</property>
  <property name="seekable">1</property>
  <property name="format">3</property>
  <property name="audio_index">1</property>
  <property name="video_index">0</property>
  <property name="kdenlive:clipname"/>
  <property name="kdenlive:clip_type">0</property>
  <property name="kdenlive:folderid">-1</property>
  <property name="kdenlive:id">5</property>
  <property name="mute_on_pause">0</property>
  <property name="kdenlive:file_size">9824048</property>
  <property name="kdenlive:file_hash">af7695a66d20e4af4aa318801bdaae02</property>
  <property name="kdenlive:audio_max1">253</property>
  <property name="meta.media.nb_streams">2</property>
  <property name="meta.media.0.stream.type">video</property>
  <property name="meta.media.0.stream.frame_rate">30</property>
  <property name="meta.media.0.stream.sample_aspect_ratio">0</property>
  <property name="meta.media.0.codec.width">480</property>
  <property name="meta.media.0.codec.height">360</property>
  <property name="meta.media.0.codec.rotate">0</property>
  <property name="meta.media.0.codec.pix_fmt">yuv420p</property>
  <property name="meta.media.0.codec.sample_aspect_ratio">1</property>
  <property name="meta.media.0.codec.colorspace">601</property>
  <property name="meta.media.0.codec.name">h264</property>
  <property name="meta.media.0.codec.long_name">H.264 / AVC / MPEG-4 AVC / MPEG-4 part 10</property>
  <property name="meta.media.0.codec.bit_rate">260175</property>
  <property name="meta.attr.0.stream.creation_time.markup">2019-12-01T04:55:19.000000Z</property>
  <property name="meta.attr.0.stream.handler_name.markup">ISO Media file produced by Google Inc. Created on: 11/30/2019.</property>
  <property name="meta.attr.0.stream.vendor_id.markup">[0][0][0][0]</property>
  <property name="meta.media.1.stream.type">audio</property>
  <property name="meta.media.1.codec.sample_fmt">fltp</property>
  <property name="meta.media.1.codec.sample_rate">44100</property>
  <property name="meta.media.1.codec.channels">2</property>
  <property name="meta.media.1.codec.name">aac</property>
  <property name="meta.media.1.codec.long_name">AAC (Advanced Audio Coding)</property>
  <property name="meta.media.1.codec.bit_rate">95999</property>
  <property name="meta.attr.1.stream.creation_time.markup">2019-12-01T04:55:19.000000Z</property>
  <property name="meta.attr.1.stream.handler_name.markup">ISO Media file produced by Google Inc. Created on: 11/30/2019.</property>
  <property name="meta.attr.1.stream.vendor_id.markup">[0][0][0][0]</property>
  <property name="meta.attr.major_brand.markup">mp42</property>
  <property name="meta.attr.minor_version.markup">0</property>
  <property name="meta.attr.compatible_brands.markup">isommp42</property>
  <property name="meta.attr.creation_time.markup">2019-12-01T04:55:19.000000Z</property>
  <property name="meta.media.sample_aspect_num">1</property>
  <property name="meta.media.sample_aspect_den">1</property>
  <property name="meta.media.frame_rate_num">30</property>
  <property name="meta.media.frame_rate_den">1</property>
  <property name="meta.media.colorspace">601</property>
  <property name="meta.media.color_trc">2</property>
  <property name="meta.media.has_b_frames">0</property>
  <property name="meta.media.width">480</property>
  <property name="meta.media.height">360</property>
  <property name="meta.media.color_range">mpeg</property>
  <property name="xml">was here</property>
  <property name="meta.media.top_field_first">0</property>
  <property name="meta.media.progressive">1</property>
  <property name="set.test_audio">1</property>
  <property name="set.test_image">0</property>
 </chain>
 <playlist id="playlist6">
  <blank length="00:07:47.067"/>
  <entry producer="chain9" in="00:00:02.500" out="00:03:39.100">
   <property name="kdenlive:id">5</property>
   <filter id="filter9">
    <property name="rotate_center">1</property>
    <property name="mlt_service">qtblend</property>
    <property name="kdenlive_id">qtblend</property>
    <property name="rect">00:00:02.500=1677 -3 244 177 1.000000</property>
    <property name="rotation">00:00:02.500=0</property>
    <property name="compositing">0</property>
    <property name="distort">0</property>
    <property name="kdenlive:collapsed">0</property>
   </filter>
  </entry>
 </playlist>
 <playlist id="playlist7"/>
 <tractor id="tractor3" in="00:00:00.000" out="00:11:23.667">
  <property name="kdenlive:trackheight">69</property>
  <property name="kdenlive:timeline_active">1</property>
  <property name="kdenlive:collapsed">0</property>
  <property name="kdenlive:thumbs_format"/>
  <property name="kdenlive:audio_rec"/>
  <track hide="audio" producer="playlist6"/>
  <track hide="audio" producer="playlist7"/>
 </tractor>
 <tractor id="tractor4" in="00:00:00.000" out="00:28:03.700">
  <property name="kdenlive:duration">00:11:23:21</property>
  <property name="kdenlive:maxduration">20511</property>
  <property name="kdenlive:clipname">Sequence 1</property>
  <property name="kdenlive:description"/>
  <property name="kdenlive:uuid">{3046a070-917d-4754-9b17-78e8ed09b964}</property>
  <property name="kdenlive:producer_type">17</property>
  <property name="kdenlive:id">3</property>
  <property name="kdenlive:clip_type">0</property>
  <property name="kdenlive:file_hash">90440f6ca9ca29c34ca7eb25e2b19747</property>
  <property name="kdenlive:folderid">2</property>
  <property name="kdenlive:sequenceproperties.groups">[
    {
        "children": [
            {
                "data": "2:13937",
                "leaf": "clip",
                "type": "Leaf"
            },
            {
                "data": "1:13937",
                "leaf": "clip",
                "type": "Leaf"
            }
        ],
        "type": "AVSplit"
    },
    {
        "children": [
            {
                "data": "3:14012",
                "leaf": "clip",
                "type": "Leaf"
            },
            {
                "data": "0:14012",
                "leaf": "clip",
                "type": "Leaf"
            }
        ],
        "type": "AVSplit"
    },
    {
        "children": [
            {
                "data": "2:13732",
                "leaf": "clip",
                "type": "Leaf"
            },
            {
                "data": "1:13732",
                "leaf": "clip",
                "type": "Leaf"
            }
        ],
        "type": "AVSplit"
    },
    {
        "children": [
            {
                "data": "2:0",
                "leaf": "clip",
                "type": "Leaf"
            },
            {
                "data": "1:0",
                "leaf": "clip",
                "type": "Leaf"
            }
        ],
        "type": "AVSplit"
    },
    {
        "children": [
            {
                "data": "1:12713",
                "leaf": "clip",
                "type": "Leaf"
            },
            {
                "data": "2:12713",
                "leaf": "clip",
                "type": "Leaf"
            }
        ],
        "type": "AVSplit"
    }
]
</property>
  <property name="kdenlive:sequenceproperties.zoom">12</property>
  <property name="kdenlive:sequenceproperties.verticalzoom">1</property>
  <property name="kdenlive:sequenceproperties.thumbnailFrame"/>
  <property name="kdenlive:sequenceproperties.documentuuid">{3046a070-917d-4754-9b17-78e8ed09b964}</property>
  <property name="kdenlive:sequenceproperties.guides">[
]
</property>
  <property name="kdenlive:sequenceproperties.audioTarget">1</property>
  <property name="kdenlive:sequenceproperties.videoTarget">2</property>
  <property name="kdenlive:sequenceproperties.activeTrack">1</property>
  <property name="kdenlive:sequenceproperties.hasAudio">1</property>
  <property name="kdenlive:sequenceproperties.hasVideo">1</property>
  <property name="kdenlive:sequenceproperties.tracksCount">4</property>
  <property name="kdenlive:sequenceproperties.position">11150</property>
  <property name="kdenlive:sequenceproperties.scrollPos">857</property>
  <property name="kdenlive:sequenceproperties.zonein">0</property>
  <property name="kdenlive:sequenceproperties.zoneout">75</property>
  <property name="kdenlive:sequenceproperties.disablepreview">0</property>
  <track producer="producer0"/>
  <track producer="tractor0"/>
  <track producer="tractor1"/>
  <track producer="tractor2"/>
  <track producer="tractor3"/>
  <transition id="transition0">
   <property name="a_track">0</property>
   <property name="b_track">1</property>
   <property name="mlt_service">mix</property>
   <property name="kdenlive_id">mix</property>
   <property name="internal_added">237</property>
   <property name="always_active">1</property>
   <property name="accepts_blanks">1</property>
   <property name="sum">1</property>
  </transition>
  <transition id="transition1">
   <property name="a_track">0</property>
   <property name="b_track">2</property>
   <property name="mlt_service">mix</property>
   <property name="kdenlive_id">mix</property>
   <property name="internal_added">237</property>
   <property name="always_active">1</property>
   <property name="accepts_blanks">1</property>
   <property name="sum">1</property>
  </transition>
  <transition id="transition2">
   <property name="a_track">0</property>
   <property name="b_track">3</property>
   <property name="compositing">0</property>
   <property name="distort">0</property>
   <property name="rotate_center">0</property>
   <property name="mlt_service">qtblend</property>
   <property name="always_active">1</property>
   <property name="internal_added">237</property>
  </transition>
  <transition id="transition3">
   <property name="a_track">0</property>
   <property name="b_track">4</property>
   <property name="compositing">0</property>
   <property name="distort">0</property>
   <property name="rotate_center">0</property>
   <property name="mlt_service">qtblend</property>
   <property name="always_active">1</property>
   <property name="internal_added">237</property>
  </transition>
  <filter id="filter10">
   <property name="window">75</property>
   <property name="max_gain">20dB</property>
   <property name="mlt_service">volume</property>
   <property name="internal_added">237</property>
   <property name="disable">1</property>
  </filter>
  <filter id="filter11">
   <property name="channel">-1</property>
   <property name="mlt_service">panner</property>
   <property name="internal_added">237</property>
   <property name="start">0.5</property>
   <property name="disable">1</property>
  </filter>
  <filter id="filter12">
   <property name="window">75</property>
   <property name="max_gain">20dB</property>
   <property name="mlt_service">volume</property>
   <property name="internal_added">237</property>
   <property name="disable">1</property>
  </filter>
  <filter id="filter13">
   <property name="channel">-1</property>
   <property name="mlt_service">panner</property>
   <property name="internal_added">237</property>
   <property name="start">0.5</property>
   <property name="disable">1</property>
  </filter>
  <filter id="filter14">
   <property name="window">75</property>
   <property name="max_gain">20dB</property>
   <property name="mlt_service">volume</property>
   <property name="internal_added">237</property>
   <property name="disable">1</property>
  </filter>
  <filter id="filter15">
   <property name="channel">-1</property>
   <property name="mlt_service">panner</property>
   <property name="internal_added">237</property>
   <property name="start">0.5</property>
   <property name="disable">1</property>
  </filter>
  <filter id="filter16">
   <property name="window">75</property>
   <property name="max_gain">20dB</property>
   <property name="mlt_service">volume</property>
   <property name="internal_added">237</property>
   <property name="disable">1</property>
  </filter>
  <filter id="filter17">
   <property name="channel">-1</property>
   <property name="mlt_service">panner</property>
   <property name="internal_added">237</property>
   <property name="start">0.5</property>
   <property name="disable">1</property>
  </filter>
 </tractor>
 <chain id="chain10" out="00:07:23.433">
  <property name="length">13304</property>
  <property name="eof">pause</property>
  <property name="resource">/home/own/Videos/addappleslides_1_ssr-2023-06-02_12.37.26.mkv</property>
  <property name="mlt_service">avformat-novalidate</property>
  <property name="meta.media.nb_streams">2</property>
  <property name="meta.media.0.stream.type">video</property>
  <property name="meta.media.0.stream.frame_rate">30.303</property>
  <property name="meta.media.0.stream.sample_aspect_ratio">1</property>
  <property name="meta.media.0.codec.width">1920</property>
  <property name="meta.media.0.codec.height">1080</property>
  <property name="meta.media.0.codec.rotate">0</property>
  <property name="meta.media.0.codec.pix_fmt">yuv420p</property>
  <property name="meta.media.0.codec.sample_aspect_ratio">1</property>
  <property name="meta.media.0.codec.colorspace">709</property>
  <property name="meta.media.0.codec.color_trc">1</property>
  <property name="meta.media.0.codec.name">h264</property>
  <property name="meta.media.0.codec.long_name">H.264 / AVC / MPEG-4 AVC / MPEG-4 part 10</property>
  <property name="meta.media.0.codec.bit_rate">0</property>
  <property name="meta.attr.0.stream.DURATION.markup">00:07:23.401000000</property>
  <property name="meta.media.1.stream.type">audio</property>
  <property name="meta.media.1.codec.sample_fmt">fltp</property>
  <property name="meta.media.1.codec.sample_rate">48000</property>
  <property name="meta.media.1.codec.channels">2</property>
  <property name="meta.media.1.codec.name">vorbis</property>
  <property name="meta.media.1.codec.long_name">Vorbis</property>
  <property name="meta.media.1.codec.bit_rate">0</property>
  <property name="meta.attr.1.stream.DURATION.markup">00:07:23.468000000</property>
  <property name="meta.attr.ENCODER.markup">Lavf60.3.100</property>
  <property name="seekable">1</property>
  <property name="meta.media.sample_aspect_num">1</property>
  <property name="meta.media.sample_aspect_den">1</property>
  <property name="format">3</property>
  <property name="audio_index">1</property>
  <property name="video_index">0</property>
  <property name="meta.media.frame_rate_num">1000</property>
  <property name="meta.media.frame_rate_den">33</property>
  <property name="meta.media.colorspace">709</property>
  <property name="meta.media.color_trc">1</property>
  <property name="meta.media.has_b_frames">2</property>
  <property name="meta.media.width">1920</property>
  <property name="meta.media.height">1080</property>
  <property name="meta.media.color_range">mpeg</property>
  <property name="kdenlive:clipname"/>
  <property name="meta.media.top_field_first">0</property>
  <property name="meta.media.progressive">1</property>
  <property name="kdenlive:clip_type">0</property>
  <property name="kdenlive:folderid">-1</property>
  <property name="kdenlive:id">6</property>
  <property name="mute_on_pause">0</property>
  <property name="kdenlive:file_size">10312798</property>
  <property name="kdenlive:file_hash">cc725651ab56819bb7ca45fb0dad178d</property>
  <property name="kdenlive:audio_max1">205</property>
 </chain>
 <chain id="chain11" out="00:00:47.000">
  <property name="length">1411</property>
  <property name="eof">pause</property>
  <property name="resource">/home/own/Videos/addappleslides_2_ssr-2023-06-02_12.45.58.mkv</property>
  <property name="mlt_service">avformat-novalidate</property>
  <property name="meta.media.nb_streams">2</property>
  <property name="meta.media.0.stream.type">video</property>
  <property name="meta.media.0.stream.frame_rate">30.303</property>
  <property name="meta.media.0.stream.sample_aspect_ratio">1</property>
  <property name="meta.media.0.codec.width">1920</property>
  <property name="meta.media.0.codec.height">1080</property>
  <property name="meta.media.0.codec.rotate">0</property>
  <property name="meta.media.0.codec.pix_fmt">yuv420p</property>
  <property name="meta.media.0.codec.sample_aspect_ratio">1</property>
  <property name="meta.media.0.codec.colorspace">709</property>
  <property name="meta.media.0.codec.color_trc">1</property>
  <property name="meta.media.0.codec.name">h264</property>
  <property name="meta.media.0.codec.long_name">H.264 / AVC / MPEG-4 AVC / MPEG-4 part 10</property>
  <property name="meta.media.0.codec.bit_rate">0</property>
  <property name="meta.attr.0.stream.DURATION.markup">00:00:46.968000000</property>
  <property name="meta.media.1.stream.type">audio</property>
  <property name="meta.media.1.codec.sample_fmt">fltp</property>
  <property name="meta.media.1.codec.sample_rate">48000</property>
  <property name="meta.media.1.codec.channels">2</property>
  <property name="meta.media.1.codec.name">vorbis</property>
  <property name="meta.media.1.codec.long_name">Vorbis</property>
  <property name="meta.media.1.codec.bit_rate">0</property>
  <property name="meta.attr.1.stream.DURATION.markup">00:00:47.034000000</property>
  <property name="meta.attr.ENCODER.markup">Lavf60.3.100</property>
  <property name="seekable">1</property>
  <property name="meta.media.sample_aspect_num">1</property>
  <property name="meta.media.sample_aspect_den">1</property>
  <property name="format">3</property>
  <property name="audio_index">1</property>
  <property name="video_index">0</property>
  <property name="meta.media.frame_rate_num">1000</property>
  <property name="meta.media.frame_rate_den">33</property>
  <property name="meta.media.colorspace">709</property>
  <property name="meta.media.color_trc">1</property>
  <property name="meta.media.has_b_frames">2</property>
  <property name="meta.media.width">1920</property>
  <property name="meta.media.height">1080</property>
  <property name="meta.media.color_range">mpeg</property>
  <property name="kdenlive:clipname"/>
  <property name="meta.media.top_field_first">0</property>
  <property name="meta.media.progressive">1</property>
  <property name="kdenlive:clip_type">0</property>
  <property name="kdenlive:folderid">-1</property>
  <property name="kdenlive:id">7</property>
  <property name="mute_on_pause">0</property>
  <property name="kdenlive:file_size">4645249</property>
  <property name="kdenlive:file_hash">1c6f11cb4d3d13141a8e9e2d2c9f64f5</property>
  <property name="kdenlive:audio_max1">201</property>
 </chain>
 <playlist id="main_bin">
  <property name="kdenlive:folder.-1.2">Sequences</property>
  <property name="kdenlive:docproperties.activetimeline">{3046a070-917d-4754-9b17-78e8ed09b964}</property>
  <property name="kdenlive:docproperties.browserurl">/home/own/Documents/newrepos/mosfet-bad-apple/</property>
  <property name="kdenlive:docproperties.compositing">1</property>
  <property name="kdenlive:docproperties.documentid">1685646067898</property>
  <property name="kdenlive:docproperties.enableTimelineZone">0</property>
  <property name="kdenlive:docproperties.enableexternalproxy">0</property>
  <property name="kdenlive:docproperties.enableproxy">0</property>
  <property name="kdenlive:docproperties.externalproxyparams"/>
  <property name="kdenlive:docproperties.generateimageproxy">0</property>
  <property name="kdenlive:docproperties.generateproxy">0</property>
  <property name="kdenlive:docproperties.guidesCategories">[
    {
        "color": "#9b59b6",
        "comment": "Category 1",
        "index": 0
    },
    {
        "color": "#3daee9",
        "comment": "Category 2",
        "index": 1
    },
    {
        "color": "#1abc9c",
        "comment": "Category 3",
        "index": 2
    },
    {
        "color": "#1cdc9a",
        "comment": "Category 4",
        "index": 3
    },
    {
        "color": "#c9ce3b",
        "comment": "Category 5",
        "index": 4
    },
    {
        "color": "#fdbc4b",
        "comment": "Category 6",
        "index": 5
    },
    {
        "color": "#f39c1f",
        "comment": "Category 7",
        "index": 6
    },
    {
        "color": "#f47750",
        "comment": "Category 8",
        "index": 7
    },
    {
        "color": "#da4453",
        "comment": "Category 9",
        "index": 8
    }
]
</property>
  <property name="kdenlive:docproperties.kdenliveversion">23.04.1</property>
  <property name="kdenlive:docproperties.opensequences">{3046a070-917d-4754-9b17-78e8ed09b964}</property>
  <property name="kdenlive:docproperties.previewextension"/>
  <property name="kdenlive:docproperties.previewparameters"/>
  <property name="kdenlive:docproperties.profile">atsc_1080p_30</property>
  <property name="kdenlive:docproperties.proxyextension"/>
  <property name="kdenlive:docproperties.proxyimageminsize">2000</property>
  <property name="kdenlive:docproperties.proxyimagesize">800</property>
  <property name="kdenlive:docproperties.proxyminsize">1000</property>
  <property name="kdenlive:docproperties.proxyparams"/>
  <property name="kdenlive:docproperties.proxyresize">640</property>
  <property name="kdenlive:docproperties.rendercategory">Generic (HD for web, mobile devices...)</property>
  <property name="kdenlive:docproperties.rendercustomquality">-1</property>
  <property name="kdenlive:docproperties.renderendguide">-1</property>
  <property name="kdenlive:docproperties.renderexportaudio">0</property>
  <property name="kdenlive:docproperties.renderfullcolorrange">0</property>
  <property name="kdenlive:docproperties.rendermode">0</property>
  <property name="kdenlive:docproperties.renderplay">0</property>
  <property name="kdenlive:docproperties.renderpreview">0</property>
  <property name="kdenlive:docproperties.renderprofile">MP4-H264/AAC</property>
  <property name="kdenlive:docproperties.renderratio">1</property>
  <property name="kdenlive:docproperties.renderrescale">0</property>
  <property name="kdenlive:docproperties.renderrescaleheight">180</property>
  <property name="kdenlive:docproperties.renderrescalewidth">320</property>
  <property name="kdenlive:docproperties.renderspeed">6</property>
  <property name="kdenlive:docproperties.renderstartguide">-1</property>
  <property name="kdenlive:docproperties.rendertcoverlay">0</property>
  <property name="kdenlive:docproperties.rendertctype">-1</property>
  <property name="kdenlive:docproperties.rendertwopass">0</property>
  <property name="kdenlive:docproperties.renderurl">Final.mp4</property>
  <property name="kdenlive:docproperties.seekOffset">30000</property>
  <property name="kdenlive:docproperties.uuid">{3046a070-917d-4754-9b17-78e8ed09b964}</property>
  <property name="kdenlive:docproperties.version">1.1</property>
  <property name="kdenlive:expandedFolders"/>
  <property name="kdenlive:binZoom">4</property>
  <property name="kdenlive:documentnotes"/>
  <property name="xml_retain">1</property>
  <entry producer="chain5" in="00:00:00.000" out="00:03:39.000"/>
  <entry producer="chain4" in="00:00:00.000" out="00:03:39.100"/>
  <entry producer="tractor4" in="00:00:00.000" out="00:03:39.100"/>
  <entry producer="chain10" in="00:00:00.000" out="00:07:23.433"/>
  <entry producer="chain11" in="00:00:00.000" out="00:00:47.000"/>
 </playlist>
 <tractor id="tractor5" in="00:00:00.000" out="00:11:23.700">
  <property name="kdenlive:projectTractor">1</property>
  <track producer="tractor4" in="00:00:00.000" out="00:11:23.700"/>
 </tractor>
</mlt>
